<svg width="175" height="90" viewBox="0 0 175 90" fill="none" xmlns="http://www.w3.org/2000/svg">
<rect x="0.5" y="0.5" width="174" height="89" rx="3.5" stroke="#AFB1B8"/>
<path d="M87.7405 43.6885C87.3226 43.0973 87.1226 42.3987 87.1701 41.6954V38.8056C87.1701 37.9198 87.3592 37.2466 87.7373 36.7861C88.1155 36.3255 88.7651 36.0962 89.686 36.0982C90.5513 36.0982 91.1656 36.2941 91.5288 36.6861C91.925 37.1862 92.1178 37.7978 92.0736 38.4147V39.0937H90.5256V38.4058C90.5311 38.1807 90.5161 37.9555 90.4808 37.7326C90.4585 37.5803 90.3806 37.4393 90.2596 37.3328C90.1007 37.2181 89.9004 37.1624 89.6988 37.177C89.4867 37.1625 89.2764 37.2212 89.1091 37.3417C88.9742 37.4596 88.8844 37.6142 88.8527 37.7826C88.8083 38.0185 88.7879 38.2576 88.7918 38.497V42.0041C88.7674 42.3424 88.8357 42.6809 88.9905 42.9889C89.0675 43.093 89.1744 43.1756 89.2994 43.2275C89.4244 43.2794 89.5626 43.2985 89.6988 43.2828C89.8971 43.2978 90.0939 43.2408 90.2468 43.1241C90.373 43.0093 90.4541 42.8594 90.4776 42.6978C90.5137 42.4652 90.5298 42.2302 90.5256 41.9952V41.2838H92.0736V41.9335C92.1171 42.5765 91.929 43.2148 91.5384 43.7502C91.1827 44.1794 90.5769 44.394 89.686 44.394C88.795 44.394 88.1219 44.1647 87.7405 43.6885Z" fill="#AFB1B8"/>
<path d="M94.1857 43.7179C93.7947 43.2681 93.5992 42.6126 93.5992 41.7454V38.7057C93.5992 37.8473 93.7947 37.1976 94.1857 36.7567C94.5767 36.3157 95.2305 36.0962 96.1471 36.0982C97.0573 36.0982 97.7079 36.3177 98.0989 36.7567C98.4899 37.1976 98.6886 37.8473 98.6886 38.7057V41.7454C98.6886 42.6038 98.4899 43.2623 98.0925 43.715C97.6951 44.1677 97.0477 44.394 96.1471 44.394C95.2466 44.394 94.5799 44.1647 94.1857 43.7179ZM96.8682 42.9889C97.0083 42.7071 97.072 42.3985 97.0541 42.0893V38.3676C97.0721 38.0644 97.0094 37.7617 96.8714 37.4857C96.7929 37.3793 96.6833 37.2954 96.5553 37.2434C96.4272 37.1914 96.2858 37.1735 96.1471 37.1917C96.0081 37.174 95.8664 37.1921 95.7379 37.244C95.6094 37.2959 95.4992 37.3796 95.4196 37.4857C95.2787 37.7609 95.2148 38.064 95.2337 38.3676V42.1069C95.2143 42.4162 95.2781 42.7252 95.4196 43.0065C95.5099 43.1013 95.6212 43.1773 95.7461 43.2294C95.8711 43.2815 96.0067 43.3084 96.1439 43.3084C96.2812 43.3084 96.4168 43.2815 96.5417 43.2294C96.6666 43.1773 96.778 43.1013 96.8682 43.0065V42.9889Z" fill="#AFB1B8"/>
<path d="M100.551 36.1868H102.217L103.47 41.795L104.752 36.1868H106.374L106.537 44.2817H105.339L105.211 38.6558L103.973 44.2817H103.012L101.73 38.6352L101.611 44.2817H100.4L100.551 36.1868Z" fill="#AFB1B8"/>
<path d="M108.406 36.1868H111.002C112.497 36.1868 113.245 36.953 113.245 38.4853C113.245 39.9531 112.458 40.6859 110.883 40.684H109.999V44.2817H108.396L108.406 36.1868ZM110.624 39.6464C110.782 39.6648 110.943 39.6515 111.095 39.6073C111.247 39.5632 111.387 39.4893 111.505 39.3907C111.689 39.1173 111.77 38.7962 111.736 38.4765C111.744 38.2296 111.718 37.9827 111.659 37.7417C111.636 37.6612 111.596 37.5857 111.541 37.5196C111.486 37.4535 111.417 37.3981 111.338 37.3566C111.116 37.2588 110.87 37.2143 110.624 37.2273H110.002V39.6464H110.624Z" fill="#AFB1B8"/>
<path d="M115.556 36.1868H117.277L119.043 44.2817H117.549L117.2 42.4153H115.665L115.306 44.2817H113.79L115.556 36.1868ZM117.027 41.4776L116.428 38.0797L115.828 41.4776H117.027Z" fill="#AFB1B8"/>
<path d="M120.469 36.1868H121.591L123.738 40.8045V36.1868H125.068V44.2817H124.001L121.841 39.4612V44.2817H120.466L120.469 36.1868Z" fill="#AFB1B8"/>
<path d="M128.183 41.1954L126.398 36.1985H127.901L128.991 39.4083L130.013 36.1985H131.484L129.722 41.1954V44.2817H128.183V41.1954Z" fill="#AFB1B8"/>
<path d="M90.2148 47.8213V48.2446H88.9072V51.5339H88.3592V48.2446H87.0452V47.8213H90.2148Z" fill="#AFB1B8"/>
<path d="M94.3138 51.5342H93.8908C93.8478 51.5366 93.8054 51.524 93.7722 51.4989C93.7402 51.4774 93.7157 51.4477 93.7017 51.4137L93.3235 50.5318H91.5095L91.1313 51.4137C91.1206 51.4505 91.1008 51.4847 91.0736 51.5136C91.0401 51.5382 90.9979 51.5508 90.955 51.5489H90.532L92.1345 47.8362H92.6921L94.3138 51.5342ZM91.6601 50.1555H93.1729L92.5319 48.6446C92.4846 48.5303 92.445 48.4135 92.4133 48.2948C92.3909 48.3653 92.3716 48.4329 92.3524 48.4917L92.2947 48.6475L91.6601 50.1555Z" fill="#AFB1B8"/>
<path d="M97.0765 51.1694C97.1769 51.1743 97.2774 51.1743 97.3778 51.1694C97.4644 51.1612 97.5502 51.1465 97.6342 51.1253C97.7127 51.1077 97.7898 51.0851 97.8649 51.0577C97.9354 51.0313 98.0059 50.9989 98.0797 50.9666V50.1317H97.4387C97.4228 50.1325 97.407 50.1303 97.3921 50.1253C97.3772 50.1202 97.3636 50.1124 97.3521 50.1023C97.3416 50.0939 97.3333 50.0835 97.3277 50.0718C97.3222 50.0601 97.3196 50.0474 97.3201 50.0347V49.7495H98.5636V51.1724C98.4621 51.239 98.3549 51.298 98.2431 51.3488C98.1288 51.4005 98.0098 51.4428 97.8874 51.4752C97.7563 51.5105 97.6223 51.5361 97.4867 51.5516C97.3314 51.5674 97.1752 51.5753 97.0188 51.5751C96.7424 51.5773 96.4682 51.5303 96.2112 51.437C95.9712 51.3485 95.7532 51.2165 95.5702 51.0489C95.3918 50.8796 95.2513 50.6799 95.1568 50.461C95.0557 50.2149 95.0057 49.9537 95.0093 49.6907C95.006 49.4262 95.0548 49.1632 95.1536 48.9146C95.2457 48.6946 95.3865 48.4944 95.567 48.3267C95.7499 48.1597 95.968 48.0286 96.208 47.9416C96.4824 47.8469 96.7737 47.8 97.0669 47.8034C97.2161 47.8032 97.3651 47.814 97.5124 47.8357C97.6426 47.8552 97.7704 47.8867 97.8938 47.9298C98.0059 47.9684 98.1133 48.0177 98.2143 48.0768C98.3125 48.1348 98.4057 48.1997 98.4931 48.2708L98.3393 48.5001C98.3272 48.5211 98.3093 48.5387 98.2873 48.5511C98.2653 48.5635 98.2401 48.5703 98.2143 48.5707C98.1788 48.5696 98.1444 48.5594 98.1149 48.5413C98.0668 48.5178 98.0156 48.4884 97.9579 48.4531C97.8897 48.4139 97.8179 48.3804 97.7431 48.3531C97.6476 48.318 97.549 48.2905 97.4483 48.2708C97.314 48.2481 97.1777 48.2373 97.0413 48.2385C96.8298 48.2363 96.6199 48.2713 96.4227 48.3414C96.2444 48.407 96.0836 48.5073 95.9516 48.6354C95.8188 48.7688 95.7173 48.9259 95.6535 49.0969C95.5103 49.499 95.5103 49.9324 95.6535 50.3345C95.7237 50.5091 95.8328 50.6684 95.974 50.802C96.1055 50.9293 96.265 51.0295 96.4419 51.0959C96.6457 51.1601 96.8617 51.1851 97.0765 51.1694Z" fill="#AFB1B8"/>
<path d="M102.185 51.1106H103.935V51.5339H101.65V47.8213H102.198L102.185 51.1106Z" fill="#AFB1B8"/>
<path d="M105.755 51.5339H105.207V47.8213H105.755V51.5339Z" fill="#AFB1B8"/>
<path d="M107.794 47.8387C107.826 47.8558 107.855 47.8788 107.877 47.9063L110.22 50.705C110.217 50.6609 110.217 50.6167 110.22 50.5727C110.22 50.5315 110.22 50.4904 110.22 50.4522V47.8064H110.697V51.534H110.422C110.381 51.537 110.34 51.5299 110.303 51.5134C110.27 51.4949 110.241 51.471 110.217 51.4428L107.877 48.6472C107.877 48.6913 107.877 48.7324 107.877 48.7736C107.877 48.8147 107.877 48.8529 107.877 48.8882V51.534H107.419V47.8211H107.704C107.735 47.8212 107.766 47.8272 107.794 47.8387Z" fill="#AFB1B8"/>
<path d="M114.732 47.8213V48.2299H112.79V49.4557H114.364V49.8496H112.79V51.1165H114.732V51.5251H112.226V47.8213H114.732Z" fill="#AFB1B8"/>
<path d="M57.3035 24.8931L81.6385 31.2307V53.439L57.3035 47.1042V24.8931ZM55.7427 23V48.1831L83.1961 55.335V30.1548L55.7427 23Z" fill="#AFB1B8"/>
<path d="M70.4565 67.0251L43 59.8674V34.6873L70.4565 41.8421V67.0251Z" fill="#AFB1B8"/>
<path d="M56.1978 24.6079L80.2155 30.8661L70.0014 40.2373L45.9806 33.9761L56.1978 24.6079ZM55.7427 23L43 34.6875L70.4565 41.8423L83.196 30.1548L55.7427 23Z" fill="#AFB1B8"/>
<path d="M72.0013 65.6084L83.196 55.338L72.0013 52.4192V65.6084Z" fill="#AFB1B8"/>
</svg>
