<svg width="175" height="90" viewBox="0 0 175 90" fill="none" xmlns="http://www.w3.org/2000/svg">
<rect x="0.5" y="0.5" width="174" height="89" rx="3.5" stroke="#AFB1B8"/>
<path d="M62.4876 61.2778C62.7175 61.5634 62.84 61.9212 62.8336 62.2884C62.8453 62.528 62.8032 62.7671 62.7104 62.988C62.6176 63.209 62.4765 63.4062 62.2975 63.565C61.851 63.9037 61.2977 64.0692 60.7393 64.0313H58V57.6263H60.6832C61.2129 57.5909 61.7383 57.7413 62.1698 58.0518C62.3431 58.1974 62.4803 58.3815 62.5706 58.5895C62.6609 58.7974 62.7019 59.0236 62.6902 59.2502C62.706 59.6035 62.5954 59.9509 62.3786 60.2296C62.1704 60.4841 61.8826 60.6605 61.5621 60.7302C61.9255 60.7968 62.2535 60.9909 62.4876 61.2778ZM59.2746 60.3109H60.4215C60.6821 60.3303 60.941 60.2548 61.1507 60.0982C61.2368 60.0198 61.3038 59.9226 61.3465 59.8141C61.3892 59.7056 61.4064 59.5887 61.3969 59.4724C61.405 59.3565 61.3874 59.2403 61.3453 59.1321C61.3033 59.0239 61.2379 58.9264 61.1538 58.8466C60.9378 58.6856 60.6709 58.6088 60.4028 58.6307H59.2746V60.3109ZM61.2629 62.7672C61.3549 62.6869 61.4273 62.5865 61.4743 62.4736C61.5213 62.3607 61.5418 62.2385 61.534 62.1163C61.541 61.9928 61.5197 61.8693 61.4716 61.7554C61.4235 61.6414 61.35 61.5401 61.2567 61.4593C61.0323 61.2922 60.7563 61.2102 60.4776 61.2277H59.2746V62.9893H60.4931C60.7674 63.0052 61.0389 62.9269 61.2629 62.7672Z" fill="#AFB1B8"/>
<path d="M67.9725 64.0313L66.4798 61.5281H65.9188V64.0313H64.6349V57.6263H67.0657C67.6784 57.5834 68.2841 57.7783 68.7579 58.1708C69.0977 58.5184 69.3026 58.9764 69.3358 59.4624C69.3689 59.9483 69.2281 60.4301 68.9386 60.821C68.6387 61.1659 68.2291 61.3959 67.7793 61.4718L69.3687 64.0313H67.9725ZM65.9188 60.6552H66.9691C67.6983 60.6552 68.0629 60.3318 68.0629 59.6852C68.0704 59.5531 68.0504 59.421 68.0042 59.2971C67.9581 59.1732 67.8868 59.0603 67.7949 58.9655C67.5645 58.7731 67.2677 58.6798 66.9691 58.7058H65.9064L65.9188 60.6552Z" fill="#AFB1B8"/>
<path d="M74.9907 62.742H72.4321L71.9803 64.0311H70.634L72.9838 57.6981H74.4391L76.7795 64.0311H75.4333L74.9907 62.742ZM74.6479 61.772L73.713 59.0686L72.7781 61.772H74.6479Z" fill="#AFB1B8"/>
<path d="M83.7759 64.0312H82.5013L79.6435 59.6757V64.0312H78.372V57.6262H79.6435L82.5013 62.0068V57.6262H83.7759V64.0312Z" fill="#AFB1B8"/>
<path d="M91.0496 62.4981C90.7861 62.9817 90.3845 63.375 89.8965 63.6276C89.3417 63.909 88.7259 64.0477 88.1046 64.0313H85.8358V57.6263H88.1046C88.7249 57.61 89.3398 57.7453 89.8965 58.0206C90.3844 58.2674 90.7864 58.6569 91.0496 59.1376C91.3119 59.6585 91.4486 60.2341 91.4486 60.8178C91.4486 61.4016 91.3119 61.9772 91.0496 62.4981ZM89.5911 62.3448C89.9549 61.9193 90.1549 61.377 90.1549 60.8163C90.1549 60.2555 89.9549 59.7133 89.5911 59.2878C89.1514 58.9024 88.578 58.7067 87.9955 58.7433H87.1104V62.8892H87.9955C88.578 62.9258 89.1514 62.7302 89.5911 62.3448Z" fill="#AFB1B8"/>
<path d="M75.7885 22C75.7885 22 92.24 28.236 91.891 37.2599V52.5229C91.891 52.5229 75.4519 46.2838 75.7947 37.2599L75.7885 22Z" fill="#AFB1B8"/>
<path d="M106.548 48.9496C109.655 46.8028 113.248 45.4731 117 45.0822V40.3043C112.677 41.977 109.01 45.0101 106.548 48.9496Z" fill="#AFB1B8"/>
<path d="M104.681 50.389C107.224 45.2478 111.633 41.2805 117 39.3032V25.5358C117 25.5358 93.5708 34.4189 94.0663 47.2695V69C94.0663 69 95.1103 68.6027 96.7526 67.858C96.7526 67.1633 96.7526 66.4625 96.8274 65.7584C97.3123 59.7926 100.137 54.2643 104.681 50.389Z" fill="#AFB1B8"/>
<path d="M102.453 58.4617C102.576 56.9546 102.85 55.4639 103.272 54.0123C100.443 57.3589 98.7297 61.5117 98.3732 65.8867C98.3389 66.2997 98.3202 66.7127 98.3109 67.1383C99.6416 66.4968 101.19 65.6958 102.817 64.754C102.402 62.6842 102.279 60.5659 102.453 58.4617Z" fill="#AFB1B8"/>
<path d="M103.384 58.54C103.228 60.4437 103.326 62.3599 103.674 64.2378C110.075 60.3923 117.268 54.4504 116.991 47.2695V46.6437C112.417 47.1575 108.139 49.1648 104.812 52.3571C104.033 54.3355 103.552 56.4193 103.384 58.54Z" fill="#AFB1B8"/>
<rect x="58" y="22" width="59" height="47" stroke="#AFB1B8"/>
</svg>
