<svg width="175" height="90" viewBox="0 0 175 90" fill="none" xmlns="http://www.w3.org/2000/svg">
<rect x="0.5" y="0.5" width="174" height="89" rx="3.5" stroke="#AFB1B8"/>
<path d="M84.977 21.9345H85.1136C85.3666 21.9345 85.6398 21.9599 85.9105 21.9828C87.1031 22.067 88.2873 22.2455 89.4521 22.5168V19.6535C88.2528 19.3526 87.0297 19.1578 85.7966 19.0712C85.3286 19.0356 84.8303 19.0127 84.3193 19H83.8917C81.4168 19.0093 78.9526 19.3271 76.5555 19.946C73.8253 20.6269 71.2047 21.6928 68.7716 23.1119V51.5086C71.1143 50.2357 73.6071 49.2643 76.1913 48.6173C78.2316 48.0967 80.3175 47.7765 82.4194 47.6612H82.5029C82.8546 47.6434 83.2062 47.6332 83.5679 47.6306V44.7216C80.8367 44.7567 78.1193 45.1178 75.4728 45.7972C74.4938 46.0515 73.5477 46.3261 72.6598 46.6313L71.6479 46.9746V24.8334L72.0805 24.6249C75.3817 23.0595 78.9522 22.1486 82.5965 21.9421C82.6268 21.9399 82.6573 21.9399 82.6876 21.9421C83.0898 21.9218 83.4946 21.9116 83.8917 21.9116H84.3269H84.3471C84.5571 21.9167 84.767 21.9218 84.977 21.9345Z" fill="#AFB1B8"/>
<path d="M92.1108 24.9326C91.4455 24.9326 90.7878 24.9097 90.1528 24.8614C89.3939 24.8054 88.6147 24.7139 87.8761 24.5893C87.4258 24.513 86.9831 24.4215 86.553 24.3223V52.3935C88.3737 52.8443 90.2433 53.0647 92.1184 53.0496C94.5931 53.0395 97.0571 52.7227 99.4546 52.1061C102.185 51.4243 104.807 50.3585 107.241 48.9402V21.0496C104.899 22.3218 102.407 23.294 99.8239 23.9434C97.3032 24.5908 94.7125 24.9231 92.1108 24.9326ZM103.335 25.4183L104.347 25.0775V47.2263L103.915 47.4348C102.255 48.2243 100.522 48.8469 98.7412 49.2937C96.5782 49.8533 94.3545 50.1412 92.1209 50.1506C91.4531 50.1506 90.7903 50.1227 90.1477 50.0667L89.4546 50.0057V47.3178V27.2288L90.2616 27.2822C90.8485 27.3204 91.4556 27.3382 92.1159 27.3382C94.9514 27.3281 97.7749 26.966 100.522 26.26C101.466 26.0108 102.404 25.7311 103.335 25.4183Z" fill="#AFB1B8"/>
<path d="M70.7372 61.2124C70.5917 61.0615 70.4163 60.943 70.2224 60.8646C70.0285 60.7862 69.8203 60.7496 69.6114 60.7572C69.3888 60.7542 69.1678 60.7957 68.9613 60.8793C68.7719 60.9547 68.5998 61.068 68.4554 61.2124C68.3125 61.3572 68.2013 61.5304 68.129 61.721C68.0497 61.9207 68.0102 62.1341 68.0127 62.3491V66.1431C68.0036 66.4104 68.0546 66.6764 68.1619 66.9212C68.2515 67.1156 68.3808 67.2889 68.5414 67.4298C68.693 67.5575 68.871 67.6495 69.0625 67.6994C69.247 67.7512 69.4376 67.7777 69.6291 67.7782C69.8404 67.7803 70.0496 67.7351 70.2413 67.646C70.431 67.563 70.6028 67.4438 70.7473 67.295C70.8882 67.1476 71.0005 66.9752 71.0787 66.7864C71.1598 66.5951 71.2011 66.3892 71.2001 66.1812V65.7566H70.2085V66.0948C70.2114 66.2103 70.1916 66.3252 70.1503 66.433C70.118 66.5137 70.0688 66.5866 70.0061 66.6466C69.9446 66.6962 69.8742 66.7334 69.7986 66.7559C69.7317 66.7782 69.6617 66.7902 69.5912 66.7915C69.5027 66.8018 69.413 66.7885 69.3313 66.7527C69.2495 66.717 69.1786 66.6602 69.1257 66.5881C69.0322 66.4356 68.9864 66.2585 68.9942 66.0795V62.5423C68.988 62.3462 69.0297 62.1515 69.1156 61.9753C69.1671 61.8952 69.2399 61.8313 69.3258 61.7908C69.4117 61.7503 69.5072 61.7349 69.6013 61.7464C69.6868 61.7434 69.7717 61.7612 69.8488 61.7984C69.9259 61.8356 69.9929 61.8911 70.044 61.96C70.155 62.1057 70.213 62.2852 70.2085 62.4686V62.7966H71.19V62.4101C71.192 62.1831 71.1508 61.9578 71.0686 61.7464C70.9953 61.5476 70.8825 61.3659 70.7372 61.2124Z" fill="#AFB1B8"/>
<path d="M76.6289 61.1691C76.3127 60.9021 75.9136 60.7546 75.5006 60.7521C75.2986 60.7529 75.0983 60.7891 74.9087 60.8589C74.7161 60.9279 74.5384 61.0332 74.385 61.1691C74.2207 61.3168 74.0896 61.498 74.0005 61.7006C73.9006 61.9323 73.8514 62.183 73.8563 62.4355V66.0744C73.8495 66.3304 73.8987 66.5847 74.0005 66.8195C74.0902 67.0151 74.2215 67.1887 74.385 67.328C74.5366 67.4688 74.7147 67.5777 74.9087 67.6485C75.0983 67.7183 75.2986 67.7544 75.5006 67.7553C75.7027 67.7549 75.903 67.7187 76.0926 67.6485C76.2899 67.5767 76.4719 67.468 76.6289 67.328C76.7871 67.1861 76.9145 67.013 77.0033 66.8195C77.1051 66.5847 77.1543 66.3304 77.1475 66.0744V62.4355C77.1524 62.183 77.1032 61.9323 77.0033 61.7006C76.915 61.5001 76.7877 61.3194 76.6289 61.1691ZM76.1659 66.0744C76.1743 66.1714 76.1609 66.269 76.1268 66.3601C76.0926 66.4512 76.0386 66.5334 75.9686 66.6008C75.8376 66.7106 75.6725 66.7708 75.5019 66.7708C75.3313 66.7708 75.1661 66.7106 75.0352 66.6008C74.9652 66.5334 74.9112 66.4512 74.877 66.3601C74.8429 66.269 74.8295 66.1714 74.8378 66.0744V62.4355C74.8295 62.3385 74.8429 62.2409 74.877 62.1498C74.9112 62.0587 74.9652 61.9764 75.0352 61.9091C75.1661 61.7993 75.3313 61.7391 75.5019 61.7391C75.6725 61.7391 75.8376 61.7993 75.9686 61.9091C76.0386 61.9764 76.0926 62.0587 76.1268 62.1498C76.1609 62.2409 76.1743 62.3385 76.1659 62.4355V66.0744Z" fill="#AFB1B8"/>
<path d="M84.3673 67.6994V60.8107H83.4136L82.1614 64.4572H82.1437L80.8814 60.8107H79.9378V67.6994H80.9218V63.5087H80.9395L81.9034 66.4712H82.3941L83.3656 63.5087H83.3833V67.6994H84.3673Z" fill="#AFB1B8"/>
<path d="M89.958 61.2937C89.8065 61.1237 89.6152 60.9943 89.4015 60.9173C89.1712 60.8424 88.9301 60.8063 88.6881 60.8105H87.2259V67.6993H88.2074V65.0089H88.7134C89.0196 65.0228 89.3243 64.958 89.5988 64.8207C89.8219 64.6968 90.008 64.515 90.1376 64.2943C90.2512 64.1111 90.3277 63.9071 90.3628 63.6942C90.4014 63.435 90.4192 63.173 90.4159 62.911C90.4254 62.5802 90.3931 62.2495 90.3197 61.9269C90.2543 61.6885 90.1298 61.4706 89.958 61.2937ZM89.452 63.3941C89.4478 63.5188 89.4167 63.6412 89.361 63.7527C89.3049 63.8586 89.2161 63.9434 89.108 63.9942C88.9626 64.0593 88.804 64.0889 88.6451 64.0807H88.1973V61.7387H88.7032C88.8556 61.7312 89.0075 61.7609 89.146 61.8251C89.2474 61.8834 89.328 61.9724 89.3762 62.0794C89.4298 62.2004 89.459 62.331 89.4622 62.4634C89.4622 62.6084 89.4622 62.7609 89.4622 62.9211C89.4622 63.0813 89.4723 63.2466 89.4622 63.3941H89.452Z" fill="#AFB1B8"/>
<path d="M94.6076 60.8107H93.8032L92.2853 67.6994H93.2669L93.5553 66.2194H94.8935L95.1819 67.6994H96.1634L94.6076 60.8107ZM93.702 65.2811L94.1852 62.784H94.2029L94.6835 65.2811H93.702Z" fill="#AFB1B8"/>
<path d="M100.95 64.9607H100.932L99.4495 60.8107H98.506V67.6994H99.4875V63.557H99.5077L101.008 67.6994H101.931V60.8107H100.95V64.9607Z" fill="#AFB1B8"/>
<path d="M106.948 60.8107L106.158 63.5494H106.138L105.349 60.8107H104.309L105.657 64.7878V67.6994H106.639V64.7878L107.987 60.8107H106.948Z" fill="#AFB1B8"/>
<path d="M68 69.6445H68.4731V70.9719H68.7943V69.6445H69.2649V69.3724H68V69.6445Z" fill="#AFB1B8"/>
<path d="M71.9767 69.3724L71.3569 70.9719H71.6984L71.83 70.6083H72.4675L72.6041 70.9719H72.9532L72.3182 69.3724H71.9767ZM71.9261 70.3387L72.1437 69.7462L72.3612 70.3387H71.9261Z" fill="#AFB1B8"/>
<path d="M75.9079 70.3821H76.2773V70.5881C76.1694 70.6746 76.0358 70.722 75.8978 70.7229C75.8333 70.7265 75.7689 70.7145 75.7099 70.688C75.6509 70.6614 75.5991 70.6211 75.5588 70.5703C75.474 70.4485 75.4322 70.3017 75.4399 70.1533C75.4399 69.7973 75.5942 69.6193 75.9003 69.6193C75.9809 69.6112 76.0617 69.6325 76.128 69.6791C76.1944 69.7257 76.2419 69.7947 76.2621 69.8735L76.5783 69.8125C76.51 69.4997 76.2849 69.3421 75.9003 69.3421C75.6947 69.3366 75.4947 69.4103 75.3413 69.5481C75.2607 69.6276 75.1983 69.7239 75.1586 69.8302C75.1188 69.9365 75.1026 70.0502 75.1111 70.1634C75.1017 70.3823 75.1749 70.5966 75.316 70.7636C75.3943 70.8444 75.4892 70.9071 75.594 70.9475C75.6988 70.9879 75.8111 71.0049 75.9231 70.9975C76.1734 71.0045 76.4165 70.9133 76.6011 70.7432V70.1126H75.9079V70.3821Z" fill="#AFB1B8"/>
<path d="M79.9226 69.3724H79.5988V70.9719H80.7195V70.6998H79.9226V69.3724Z" fill="#AFB1B8"/>
<path d="M83.3175 69.3724H82.9937V70.9719H83.3175V69.3724Z" fill="#AFB1B8"/>
<path d="M86.6365 70.4405L85.9813 69.3724H85.6676V70.9719H85.9686V69.9268L86.6112 70.9719H86.9325V69.3724H86.6365V70.4405Z" fill="#AFB1B8"/>
<path d="M89.6367 70.2675H90.4336V69.9954H89.6367V69.6445H90.4943V69.3724H89.3129V70.9719H90.5272V70.6998H89.6367V70.2675Z" fill="#AFB1B8"/>
<path d="M96.9122 70.0031H96.2823V69.3724H95.961V70.9719H96.2823V70.2726H96.9122V70.9719H97.2335V69.3724H96.9122V70.0031Z" fill="#AFB1B8"/>
<path d="M99.9302 70.2675H100.73V69.9954H99.9302V69.6445H100.79V69.3724H99.6089V70.9719H100.821V70.6998H99.9302V70.2675Z" fill="#AFB1B8"/>
<path d="M104.023 70.2676C104.302 70.2244 104.443 70.0769 104.443 69.8226C104.451 69.7546 104.441 69.6856 104.413 69.623C104.386 69.5603 104.342 69.5063 104.286 69.4666C104.142 69.3938 103.98 69.3614 103.818 69.3725H103.14V70.972H103.462V70.3032H103.525C103.593 70.299 103.662 70.3112 103.725 70.3388C103.772 70.3678 103.811 70.4079 103.839 70.4558L104.188 70.9644H104.572L104.377 70.6516C104.291 70.4972 104.17 70.3656 104.023 70.2676ZM103.699 70.0464H103.462V69.6446H103.715C103.825 69.6357 103.936 69.6486 104.041 69.6827C104.064 69.7034 104.083 69.7291 104.095 69.7579C104.107 69.7867 104.113 69.8179 104.111 69.8492C104.11 69.8804 104.101 69.911 104.087 69.9385C104.072 69.966 104.051 69.9899 104.026 70.0082C103.92 70.0406 103.81 70.0535 103.699 70.0464Z" fill="#AFB1B8"/>
<path d="M107.11 70.2675H107.906V69.9954H107.11V69.6445H107.97V69.3724H106.786V70.9719H108V70.6998H107.11V70.2675Z" fill="#AFB1B8"/>
</svg>
